<mxfile host="app.diagrams.net" modified="2022-12-01T05:56:30.546Z" agent="5.0 (Windows NT 10.0; Win64; x64) AppleWebKit/537.36 (KHTML, like Gecko) Chrome/107.0.0.0 Safari/537.36" version="20.6.0" etag="sVH5JV9zoJnrmyTnw6Nk" type="github">
  <diagram id="MyWeADZgGVaVvvtN2ZIk" name="Page-1">
    <mxGraphModel dx="782" dy="380" grid="1" gridSize="10" guides="1" tooltips="1" connect="1" arrows="1" fold="1" page="1" pageScale="1" pageWidth="850" pageHeight="1100" math="0" shadow="0">
      <root>
        <mxCell id="0" />
        <mxCell id="1" parent="0" />
        <mxCell id="M6LsVwGmVWrsuoE4Hr_O-2" value="" style="ellipse;whiteSpace=wrap;html=1;aspect=fixed;" vertex="1" parent="1">
          <mxGeometry x="330" y="170" width="140" height="140" as="geometry" />
        </mxCell>
        <mxCell id="M6LsVwGmVWrsuoE4Hr_O-1" value="Data Fabric- Mesh Architecture" style="ellipse;whiteSpace=wrap;html=1;aspect=fixed;" vertex="1" parent="1">
          <mxGeometry x="360" y="200" width="80" height="80" as="geometry" />
        </mxCell>
        <mxCell id="M6LsVwGmVWrsuoE4Hr_O-3" value="Data orchestration" style="ellipse;whiteSpace=wrap;html=1;aspect=fixed;" vertex="1" parent="1">
          <mxGeometry x="190" y="90" width="80" height="80" as="geometry" />
        </mxCell>
        <mxCell id="M6LsVwGmVWrsuoE4Hr_O-4" value="Data catalog (meta data)" style="ellipse;whiteSpace=wrap;html=1;aspect=fixed;" vertex="1" parent="1">
          <mxGeometry x="540" y="80" width="80" height="80" as="geometry" />
        </mxCell>
        <mxCell id="M6LsVwGmVWrsuoE4Hr_O-5" value="Data governance" style="ellipse;whiteSpace=wrap;html=1;aspect=fixed;" vertex="1" parent="1">
          <mxGeometry x="190" y="330" width="80" height="80" as="geometry" />
        </mxCell>
        <mxCell id="M6LsVwGmVWrsuoE4Hr_O-6" value="Data integration &amp;amp; Storage" style="ellipse;whiteSpace=wrap;html=1;aspect=fixed;" vertex="1" parent="1">
          <mxGeometry x="540" y="330" width="80" height="80" as="geometry" />
        </mxCell>
        <mxCell id="M6LsVwGmVWrsuoE4Hr_O-7" value="Data refinement &amp;amp;Delivery" style="ellipse;whiteSpace=wrap;html=1;aspect=fixed;" vertex="1" parent="1">
          <mxGeometry x="190" y="220" width="80" height="80" as="geometry" />
        </mxCell>
        <mxCell id="M6LsVwGmVWrsuoE4Hr_O-8" value="data security and privacy" style="ellipse;whiteSpace=wrap;html=1;aspect=fixed;" vertex="1" parent="1">
          <mxGeometry x="540" y="220" width="80" height="80" as="geometry" />
        </mxCell>
        <mxCell id="M6LsVwGmVWrsuoE4Hr_O-9" value="&lt;span style=&quot;background-color: initial; font-size: 11px;&quot;&gt;Connect disparate data sources to provide a unified view&lt;br style=&quot;font-size: 11px;&quot;&gt;&lt;/span&gt;Decouple data consumers from underlying data sources" style="rounded=0;whiteSpace=wrap;html=1;align=left;fontSize=11;" vertex="1" parent="1">
          <mxGeometry x="10" y="20" width="210" height="60" as="geometry" />
        </mxCell>
        <mxCell id="M6LsVwGmVWrsuoE4Hr_O-10" value="Automate process to refine and integrate raw data&lt;br style=&quot;font-size: 11px;&quot;&gt;Deliver data based through appropriate channel" style="rounded=0;whiteSpace=wrap;html=1;align=left;fontSize=11;" vertex="1" parent="1">
          <mxGeometry x="10" y="210" width="170" height="60" as="geometry" />
        </mxCell>
        <mxCell id="M6LsVwGmVWrsuoE4Hr_O-11" value="Govern data cycle&lt;br&gt;Manage data quality metrics&lt;br&gt;Enforce policies and procedures" style="rounded=0;whiteSpace=wrap;html=1;align=left;fontSize=11;" vertex="1" parent="1">
          <mxGeometry x="10" y="320" width="160" height="60" as="geometry" />
        </mxCell>
        <mxCell id="M6LsVwGmVWrsuoE4Hr_O-12" value="Enable data consumers to search data, concepts, relationships&lt;br&gt;Provides meaning to underlying data assets" style="rounded=0;whiteSpace=wrap;html=1;align=left;fontSize=11;" vertex="1" parent="1">
          <mxGeometry x="640" y="40" width="200" height="80" as="geometry" />
        </mxCell>
        <mxCell id="M6LsVwGmVWrsuoE4Hr_O-13" value="Provide controls for accessing data&lt;br&gt;Enable protection of sensitive data&amp;nbsp;&lt;br&gt;Manage user level entitlements" style="rounded=0;whiteSpace=wrap;html=1;fontSize=11;align=left;" vertex="1" parent="1">
          <mxGeometry x="640" y="220" width="180" height="60" as="geometry" />
        </mxCell>
        <mxCell id="M6LsVwGmVWrsuoE4Hr_O-14" value="Integration across systems&lt;br&gt;Manage disparate data structure&lt;br style=&quot;font-size: 11px;&quot;&gt;Support data processing &amp;amp; consumption requirement" style="rounded=0;whiteSpace=wrap;html=1;align=left;fontSize=11;" vertex="1" parent="1">
          <mxGeometry x="640" y="340" width="200" height="60" as="geometry" />
        </mxCell>
        <mxCell id="M6LsVwGmVWrsuoE4Hr_O-15" value="" style="endArrow=classic;startArrow=classic;html=1;rounded=0;fontSize=11;" edge="1" parent="1" source="M6LsVwGmVWrsuoE4Hr_O-2" target="M6LsVwGmVWrsuoE4Hr_O-3">
          <mxGeometry width="50" height="50" relative="1" as="geometry">
            <mxPoint x="330" y="180" as="sourcePoint" />
            <mxPoint x="380" y="130" as="targetPoint" />
          </mxGeometry>
        </mxCell>
        <mxCell id="M6LsVwGmVWrsuoE4Hr_O-16" value="" style="endArrow=classic;startArrow=classic;html=1;rounded=0;fontSize=11;exitX=0;exitY=0.5;exitDx=0;exitDy=0;" edge="1" parent="1" source="M6LsVwGmVWrsuoE4Hr_O-2" target="M6LsVwGmVWrsuoE4Hr_O-7">
          <mxGeometry width="50" height="50" relative="1" as="geometry">
            <mxPoint x="351.2300889993494" y="211.97241052899074" as="sourcePoint" />
            <mxPoint x="273.5828062860842" y="161.7300511262897" as="targetPoint" />
          </mxGeometry>
        </mxCell>
        <mxCell id="M6LsVwGmVWrsuoE4Hr_O-17" value="" style="endArrow=classic;startArrow=classic;html=1;rounded=0;fontSize=11;" edge="1" parent="1" source="M6LsVwGmVWrsuoE4Hr_O-2" target="M6LsVwGmVWrsuoE4Hr_O-5">
          <mxGeometry width="50" height="50" relative="1" as="geometry">
            <mxPoint x="361.2300889993494" y="221.97241052899074" as="sourcePoint" />
            <mxPoint x="283.5828062860842" y="171.7300511262897" as="targetPoint" />
          </mxGeometry>
        </mxCell>
        <mxCell id="M6LsVwGmVWrsuoE4Hr_O-18" value="" style="endArrow=classic;startArrow=classic;html=1;rounded=0;fontSize=11;exitX=-0.042;exitY=0.6;exitDx=0;exitDy=0;exitPerimeter=0;" edge="1" parent="1" source="M6LsVwGmVWrsuoE4Hr_O-4" target="M6LsVwGmVWrsuoE4Hr_O-2">
          <mxGeometry width="50" height="50" relative="1" as="geometry">
            <mxPoint x="351.2300889993494" y="211.97241052899074" as="sourcePoint" />
            <mxPoint x="273.5828062860842" y="161.7300511262897" as="targetPoint" />
          </mxGeometry>
        </mxCell>
        <mxCell id="M6LsVwGmVWrsuoE4Hr_O-19" value="" style="endArrow=classic;startArrow=classic;html=1;rounded=0;fontSize=11;exitX=-0.008;exitY=0.4;exitDx=0;exitDy=0;exitPerimeter=0;entryX=1;entryY=0.5;entryDx=0;entryDy=0;" edge="1" parent="1" source="M6LsVwGmVWrsuoE4Hr_O-8" target="M6LsVwGmVWrsuoE4Hr_O-2">
          <mxGeometry width="50" height="50" relative="1" as="geometry">
            <mxPoint x="546.6400000000001" y="138" as="sourcePoint" />
            <mxPoint x="464.03511649319444" y="205.5004922997224" as="targetPoint" />
          </mxGeometry>
        </mxCell>
        <mxCell id="M6LsVwGmVWrsuoE4Hr_O-20" value="" style="endArrow=classic;startArrow=classic;html=1;rounded=0;fontSize=11;entryX=1;entryY=1;entryDx=0;entryDy=0;" edge="1" parent="1" source="M6LsVwGmVWrsuoE4Hr_O-6" target="M6LsVwGmVWrsuoE4Hr_O-2">
          <mxGeometry width="50" height="50" relative="1" as="geometry">
            <mxPoint x="556.6400000000001" y="148" as="sourcePoint" />
            <mxPoint x="474.03511649319444" y="215.5004922997224" as="targetPoint" />
          </mxGeometry>
        </mxCell>
        <mxCell id="M6LsVwGmVWrsuoE4Hr_O-21" value="Data Fabric - Mesh Architecture" style="text;html=1;strokeColor=none;fillColor=none;align=center;verticalAlign=middle;whiteSpace=wrap;rounded=0;fontSize=13;" vertex="1" parent="1">
          <mxGeometry x="320" y="20" width="195" height="30" as="geometry" />
        </mxCell>
      </root>
    </mxGraphModel>
  </diagram>
</mxfile>
